<mxfile host="app.diagrams.net" modified="2023-08-25T07:51:42.854Z" agent="Mozilla/5.0 (X11; Linux x86_64) AppleWebKit/537.36 (KHTML, like Gecko) Chrome/114.0.0.0 Safari/537.36" version="21.6.9" etag="HeVjhR18lfZs97fRaHW7" type="github">
  <diagram name="Страница — 1" id="KXWHubgCmVswlv4wi9AM">
    <mxGraphModel>
      <root>
        <mxCell id="0" />
        <mxCell id="1" parent="0" />
      </root>
    </mxGraphModel>
  </diagram>
</mxfile>
